<svg id="Layer_1" data-name="Layer 1" xmlns="http://www.w3.org/2000/svg" xmlns:xlink="http://www.w3.org/1999/xlink" viewBox="0 0 500 500"><defs><style>.cls-1{fill:url(#radial-gradient);}</style><radialGradient id="radial-gradient" cx="250" cy="250" r="651.14" gradientUnits="userSpaceOnUse"><stop offset="0" stop-color="#fff"/><stop offset="0.14" stop-color="#fafafa"/><stop offset="0.3" stop-color="#ededed"/><stop offset="0.47" stop-color="#d7d7d7"/><stop offset="0.64" stop-color="#b7b7b7"/><stop offset="0.82" stop-color="#8f8f8f"/><stop offset="1" stop-color="#5e5e5e"/></radialGradient></defs><rect class="cls-1" width="500" height="500"/><path d="M188.81,296.74a67.84,67.84,0,0,1-35.88-19.13c-7.42-7.47-12.88-16.36-14.28-27.21-1.34-10.49.41-20.65,4-30.52,5.8-16.16,14.9-30.24,26.3-42.82,31.13-34.37,69.25-57.9,111.78-74.53,18.38-7.19,37.49-11.47,56.8-15.1a211.18,211.18,0,0,1,48.57-3.49c29.11,1.3,56.66,8,81,25.33a96.76,96.76,0,0,1,26.83,28.24c3.73,6.08,6.27,12.59,6.15,19.94-.15,8.46-6.63,13.94-14.41,11.1a101.11,101.11,0,0,1-19.34-9.76,167.49,167.49,0,0,0-56.15-22.4c-16.16-3.36-32.61-4.16-49.15-4-40.78.43-78.11,13-113.72,32.27-18,9.73-34.31,21.66-48.17,36.92-8.67,9.55-15.52,20.24-18.88,33a25.13,25.13,0,0,0,2.4,19.29c-1.11-21.41,9.94-36.54,22.9-51.11,23-25.87,53-38.36,85-47.32,16.76-4.7,33.94-7.41,51.34-6.85,22.36.72,44.11,5,64,16,21.17,11.79,35.85,29,41.4,53.47,2.41,10.61,2.52,21.34,1.62,32.15C447.09,271.07,441,290.54,431.5,309c-7.27,14.16-16.73,26.84-27,38.73-31.66,36.48-68.9,65.62-112,86.86a470.46,470.46,0,0,1-98.35,35.29c-4.52,1.09-9.14,2.29-13.9.85-5.08-1.53-6.66-5.59-3.32-9.79A18.21,18.21,0,0,1,183,456c12.53-6,25-12.16,37.79-17.7,20.82-9,39.54-21.72,58.51-34a354.83,354.83,0,0,0,74.81-64.41c16.68-19.09,29.69-40.26,38.12-64.3a113.82,113.82,0,0,0,6.62-32.92c.57-13.7-3.75-25.92-13.1-35.66-12.93-13.46-28.88-21.11-47.32-23.56a175.25,175.25,0,0,0-38.16-1,4.52,4.52,0,0,0-2.38.88c4.53.29,9.07.46,13.58.9,19.53,1.9,37.17,8.34,51.34,22.77a40.49,40.49,0,0,1,11.57,25.82c1.87,23.19-3.93,44.31-16.4,63.76-21.59,33.68-51.31,57.86-85.63,76.72-15.42,8.47-31.4,15.58-48.57,19.55a244.88,244.88,0,0,1-42.9,6.36c-10.88.53-21.79,1.41-32.66,1.09-36.73-1.1-71.81-8.87-103-29.75-16.19-10.85-30.36-24.09-39.66-41.84a80.28,80.28,0,0,1-5.1-13.56C-.83,310.74.6,306.62,3,303A8.31,8.31,0,0,1,13.73,300a44.56,44.56,0,0,1,11,7.15c16.76,15.27,36.39,25.31,57.08,33.62,15.46,6.21,31.55,9.67,47.89,12.06a181.77,181.77,0,0,0,50.45.21c36.38-4.85,70.1-16.86,99.51-39.56,18.64-14.38,35.24-30.94,45.51-52.93,3.7-7.93,6.33-16.2,4-25.09-3.09-11.76-11.15-18.28-22.39-21.27A75,75,0,0,0,278.65,212c2.24,1,4.1,1.72,5.91,2.56,15.12,7,20.19,20.72,13.17,36.12-4.9,10.76-13.28,18.44-22.56,25.15-17.38,12.56-36.94,19.46-57.82,23.15-12.45,2.21-24.88,3.47-37.45,2.25-16.5-1.6-32.23-5.8-45-17.25-9.67-8.65-16.19-19.46-18-32.69-1.73-12.63-.27-25,3.1-37.29,5.33-19.44,15.88-35.92,27.15-52.21,17.31-25,40.85-42.83,64.61-60.6,26-19.39,54.66-33.61,83.69-47.28,5-2.34,9.87-4.79,14.75-7.28,2-1,3.87-2.29,5.79-3.44l-.22-1c-3.66.5-7.35.83-11,1.54-27.46,5.37-54.42,12.84-80.07,24.1-32.76,14.38-63.37,32.75-90.08,57.15-9.33,8.54-18.76,17.18-26.81,26.93C93.2,169.57,81.06,189,73.49,211c-4.83,14.1-7.74,28.53-6.11,43.45,1.71,15.68,7.51,29.73,18.05,41.63,16.93,19.13,38.67,28.89,62.87,34,16.56,3.51,33.3,3.9,50,2.36,10.49-1,20.89-2.89,31.32-4.48,1.77-.27,3.53-.16,3.62,1.74A4.27,4.27,0,0,1,230.8,333c-5.88,1.45-11.8,3.07-17.79,3.57-12.31,1-24.68,1.94-37,1.82-28.37-.28-55-7.23-78.58-23.94-17.58-12.44-29.35-29-33.94-50.57-2.21-10.39-2-20.86-.59-31.29,4.23-30.68,18.72-56.41,37.49-80.07,23.66-29.83,53.35-51.95,85.56-71.27,32.71-19.62,67.87-32,104.72-40,6.19-1.36,12.34-2.94,18.58-4,3.43-.59,7.07-.81,10.15,1.67,2.37,1.92,2.92,4.07,1.11,6.48a15.13,15.13,0,0,1-4.77,4.29c-7,3.68-14.1,7.31-21.35,10.52C259.65,75.54,227.22,94.8,197.64,119c-6,4.87-12.37,9.27-17.93,14.57-23.8,22.69-43.8,48.16-54.22,80.22-4.45,13.68-6,27.78-2.48,41.84,3.73,14.83,13.79,24.74,26.65,31.88,9.23,5.13,19.36,7.26,29.7,8.42C182.51,296.24,185.66,296.46,188.81,296.74ZM180,464.09l.27,1.44c1.49.15,3,.67,4.44.39,6.3-1.29,12.6-2.63,18.83-4.27,59.83-15.78,114.92-41.2,162-82.83,13.87-12.26,27.7-24.49,39-39.41C425.31,312.27,440.82,283,443.59,248c1.37-17.34-1.19-33.84-9.61-49-7.56-13.63-19.09-23.1-32.56-30.26-15.38-8.16-31.88-12.26-49.05-14a146.11,146.11,0,0,0-34.34.89c-13.38,1.83-26.38,5.36-39.27,9.36-27.59,8.57-52.71,21.15-71.82,44.12-8.51,10.23-15.66,21.09-19,34.25-2.7,10.67,2.14,20.43,12.39,23.73a49.21,49.21,0,0,0,12.34,2.21c11.23.62,21.9-2.1,32.22-6.44,1.17-.49,2.25-1.35,3.46-1.56,1-.18,2.16.34,3.24.55-.25,1.18-.16,2.65-.84,3.47a10.11,10.11,0,0,1-3.62,2.42,73.85,73.85,0,0,1-42,6.51A36.94,36.94,0,0,1,180.2,259.8a29.09,29.09,0,0,1-6-20.41c.57-8.64,3.72-16.42,8.06-23.73,9.28-15.64,22-28,36.2-38.93,25-19.13,53.06-31.92,83-40.55,14.48-4.18,29.17-7.55,44.19-8.86a221,221,0,0,1,40.58.29,227.89,227.89,0,0,1,44.73,9c16.39,5,31.32,13.23,46.17,21.67a67.67,67.67,0,0,0,12.08,5.11c2.87,1,5.14-.8,5.36-3.85a25.77,25.77,0,0,0-.42-7.39c-2.21-10-8-17.89-14.73-25.1-12.78-13.7-28.71-22.52-45.92-28.61A164.77,164.77,0,0,0,362.9,90a344.69,344.69,0,0,0-41.41,6.32,269.41,269.41,0,0,0-63.7,22.42c-33,16.55-62.89,37.32-87.61,65.39-11.08,12.59-19.36,26.72-24.09,42.93-2.45,8.38-4.14,16.94-1.8,25.61,3.62,13.43,12.32,22.86,23.73,30,16.68,10.41,34.9,11.38,53.64,9,18.93-2.44,35.89-10.07,51.46-21,9-6.31,16.69-14.07,20.77-24.67,4.25-11.07.34-20.38-10.1-25.63-7.39-3.71-15.24-4.14-23.23-3.67-13.92.81-26.22,5.94-35.88,16.13-6,6.26-11,13.56-6.79,23.34a2.92,2.92,0,0,1-1,2.68,3.84,3.84,0,0,1-3.14-.3A4.35,4.35,0,0,1,212.3,256a23.11,23.11,0,0,1,2-17.64c5-9.53,13-15.76,22.23-20.6,18-9.4,37.19-12.55,57.18-11.29a59.5,59.5,0,0,1,20.79,4.7c15.55,6.94,23,21.2,20,38.1a66.62,66.62,0,0,1-11.76,27.38c-19.6,27.11-44.05,48.32-74.23,62.48A221.88,221.88,0,0,1,164.76,360a203,203,0,0,1-67.33-8.21A210.63,210.63,0,0,1,23.36,313.7a112.74,112.74,0,0,0-9.88-7.51c-4.23-2.7-7.32-1-7.47,4.1a24,24,0,0,0,1,7.93c3.38,10.44,9.83,18.94,17,27,12.09,13.51,27.2,22.75,42.84,31.13,11.19,6,23.31,9.71,35.66,12.22,12.72,2.59,25.54,5.1,38.43,6.25,16,1.43,32.15.4,48.18-1.54,15.45-1.87,30.73-4.49,45.53-9.47,37.11-12.5,69.18-33.26,96.64-61.53a173.54,173.54,0,0,0,26.12-34.94c7.19-12.56,11-26.38,12.18-40.8.62-7.4.88-14.9-1.9-22.18-5.66-14.87-17.34-23-31-28.61-18.06-7.36-37.1-7.4-56.17-6.42a37.32,37.32,0,0,1-5.87.22c-1.09-.11-2.73-.85-3-1.66s.55-2.51,1.39-3.2a13.35,13.35,0,0,1,4.41-2.25,125.39,125.39,0,0,1,29.3-5.57c19.07-1.56,37.76,0,55.62,7.46,11,4.58,20.92,11,28.6,20.4,13.23,16.14,15.21,35,11.51,54.79C398.65,280,390.12,298.72,379,316A245.3,245.3,0,0,1,341,361.64C325.79,376,310.29,390,293.09,401.76c-18.82,12.91-37.48,26.15-58.11,36-14.22,6.8-28.7,13-43,19.69C187.88,459.37,184,461.86,180,464.09Z"/><path d="M456.61,393.81c0,7.88,2,15.32,4.73,22.61,1.64,4.43,5.06,6.28,9.48,6.81,4.17.49,8.32,1.14,12.47,1.78a4.73,4.73,0,0,1,2.43.89,3.73,3.73,0,0,1,1.24,2.45c0,.56-1,1.46-1.72,1.61-2.08.48-4.24.58-6.35,1-3.26.61-6.52,1.27-9.75,2a10.33,10.33,0,0,0-7.85,7.75c-1.81,7.09-3,14.35-4.32,21.56-.26,1.35-.07,2.87-.58,4.09-.41,1-1.57,1.66-2.39,2.47-.6-.9-1.59-1.73-1.74-2.71-.9-5.59-1.58-11.22-2.4-16.83-.17-1.17-.68-2.28-.93-3.44C446.68,435.65,440,431.33,430.2,431c-1.76-.06-3.5-.43-5.25-.57s-3.49-.65-3.21-2.58a4.48,4.48,0,0,1,2.78-3.05c4.58-1,9.26-1.5,13.9-2.19a10.05,10.05,0,0,0,8.26-6.3,62.62,62.62,0,0,0,5-23.18c0-.3,0-.6,0-.9.19-1.92-.18-4.39,2.65-4.45,3-.06,2,2.54,2.3,4.23A12,12,0,0,1,456.61,393.81Zm12.9,33.94c-10.35-1.55-12.94-9.63-15.23-18.45-2.88,8.33-5,16.84-16,18.49,9.73,3.29,14.3,10,16.26,19.17C456.54,438.09,459.52,430.26,469.51,427.75Z"/><path d="M55,8.46c1,2.06,2,3.31,2.2,4.68.73,5.11,1,10.31,1.84,15.4.47,2.79,1.91,5.4,2.67,8.16,1.29,4.73,4.67,6.08,9,6.37,3.8.25,7.58.8,11.37,1.25a2.53,2.53,0,0,1,1.39.41c.92.84,1.74,1.79,2.6,2.7-.92.86-1.72,2.26-2.77,2.49A118.43,118.43,0,0,1,70.88,52c-4.38.48-7.62,2.73-8.8,6.8-2,6.81-3.28,13.83-4.82,20.77-.43,1.94.08,4.93-2.67,4.8-2.53-.12-2-3-2.05-4.86A68.51,68.51,0,0,0,48.3,59.2c-1.71-4.72-5.34-7-10-7.7-3.27-.53-6.58-.85-9.86-1.35-1.64-.24-3.5-.41-3.6-2.73s1.72-2.43,3.39-2.74c4.8-.87,9.57-2,14.4-2.69,2.48-.37,3.77-1.69,4.78-3.81,3.29-6.95,4.49-14.36,4.83-22a21.22,21.22,0,0,1,.41-4.46C52.9,10.84,53.78,10.11,55,8.46ZM68,47.09c-8.41-1.88-10.61-8.25-12.7-15-2.08,7.28-5.78,12.64-12.76,15.68,7.22,3.35,10.94,9.11,12.45,16.6C57,56.89,60.3,50.8,68,47.09Z"/><path d="M79.44,457.79c-1.25,1-1.93,1.92-2.77,2.12a35.12,35.12,0,0,1-6.36.94c-5.88.3-8.28,4.23-9.48,9.34-.81,3.47-1.26,7-2.08,10.52-.21.88-1.17,1.59-1.79,2.37-.71-.83-1.81-1.55-2.06-2.51-.95-3.64-1.48-7.39-2.44-11-1.17-4.43-3.48-7.65-8.55-8.11a31.13,31.13,0,0,1-7.62-2c-.84-.31-1.36-1.52-2-2.32.84-.68,1.58-1.67,2.54-2a16.46,16.46,0,0,1,4.65-.62c8.63-.11,10.89-4.61,11.66-12.26.31-3.07.59-6.16,1.18-9.18.19-.94,1.35-1.7,2.07-2.54.72.92,1.87,1.74,2.07,2.76.6,2.91.78,5.91,1.17,8.87,1.24,9.43,3.74,11.77,13,12.31a12.32,12.32,0,0,1,4,.7C77.54,455.55,78.2,456.6,79.44,457.79Zm-24.17-5.32c.36-.51.72-1,1.09-1.54a40.29,40.29,0,0,1-2.51,3.63,44.48,44.48,0,0,1-3.29,3.18,28.14,28.14,0,0,1,3.76,3.72,23.38,23.38,0,0,1,2,4.35l6.08-8.54-.74,1.89Z"/><path d="M451.07,1.42a11.22,11.22,0,0,1,1.37,2.84c.57,3.63.71,7.34,1.47,10.92,1.91,9.08,2.71,8.46,11.7,9.85a26,26,0,0,1,4.63.68c.82.27,1.95,1.45,1.89,2.12a3.4,3.4,0,0,1-1.84,2.5,44.13,44.13,0,0,1-7.51,1.27,7.64,7.64,0,0,0-7,5.53c-1.23,3.85-2,7.85-3,11.79-.09.38.08.88-.1,1.18-.76,1.26-1.61,2.48-2.43,3.71a18.72,18.72,0,0,1-2.14-3.91C447.11,46,446.4,42,445.4,38.05c-1.27-5-5.36-6.17-9.63-7-1.53-.29-3.21-.16-4.61-.76-1.19-.51-2.06-1.79-3.08-2.73.94-.72,1.8-1.86,2.84-2.09a87.47,87.47,0,0,1,9.26-1.33c3.21-.34,5-2.25,5.55-5.26.9-4.67,1.52-9.39,2.43-14.06a15.39,15.39,0,0,1,1.65-3.52Zm7.44,26.1c-5.19.23-6.66-3.36-8.37-7-1.59,4.14-4.1,6.84-8.63,7.92,5,1,7.26,4.49,9.16,8.5C451,32.06,454.86,30.43,458.51,27.52Z"/><path d="M191.59,28.45c2.74,0,4.86,2,4.79,4.43s-1.86,4.65-3.7,4.59a4.72,4.72,0,0,1-4.61-4.4C188.05,30.54,189.65,28.44,191.59,28.45Z"/><path d="M315.5,475.86c.53-2.7,3.38-6.39,4.65-5.65a10.83,10.83,0,0,1,4.28,4.61c.73,1.6-2.92,5.29-4.63,4.64S316.91,477.1,315.5,475.86Z"/><path d="M17.15,229.39a4.34,4.34,0,0,1-4.59,4,3.61,3.61,0,0,1-3.66-4.09c.13-2.14,2.25-4.31,4.19-4.29A4.57,4.57,0,0,1,17.15,229.39Z"/><path d="M382.67,430.55a4.13,4.13,0,0,1-4.17,4.08,4.18,4.18,0,0,1-4-3.9c0-2.06,2.23-4.51,4-4.48A4.74,4.74,0,0,1,382.67,430.55Z"/><path d="M85,119.32a4.29,4.29,0,0,1-4-4c0-1.74,2.18-4.09,4-4.19a4.25,4.25,0,0,1,4.09,3.9A4.62,4.62,0,0,1,85,119.32Z"/><path d="M376.18,22.08c0,2.14-1.95,4.22-3.81,4.13s-4.34-2.47-3.72-4.14A7.49,7.49,0,0,1,372.1,18C373.77,17.3,376.21,20.1,376.18,22.08Z"/><path d="M487,225.86c0-2.2,1.92-4.46,3.86-4.43s4.31,2.14,3.67,3.71a8.78,8.78,0,0,1-3.77,4.26C489.23,230.18,487.06,227.82,487,225.86Z"/><path d="M39.15,162.58c1.6.07,2.31,1.45,2.25,3.53s-1.11,3.61-3.31,3.65-3.57-1.44-3.79-3.64C34.11,164.15,36.14,162.55,39.15,162.58Z"/><path d="M98.52,282.27c-1.59-2.13-3.52-3.69-3.26-4.6.46-1.61,2.26-2.82,3.5-4.19,1.3,1.28,3.49,2.47,3.62,3.87C102.5,278.6,100.35,280.08,98.52,282.27Z"/><path d="M263.62,306.52c-.57.43-1.55,1.8-2.6,1.85-2,.1-3.89-.79-4.1-3.27-.17-2.06,1.13-3.08,3-3.34S263.48,303.42,263.62,306.52Z"/><path d="M116.44,167.6c1.41,2,2.83,3.18,2.94,4.44a3.38,3.38,0,0,1-3.41,3.72c-2.2.14-3.55-1.44-3.15-3.32C113.14,170.92,114.79,169.7,116.44,167.6Z"/><path d="M139.23,442.16c-.42,2.78-2.08,4.5-4.12,4.46a2.68,2.68,0,0,1-3-2.88c0-2.36,1.35-3.91,3.49-3.84C136.85,439.94,138,441.36,139.23,442.16Z"/><path d="M158.6,129.52c-2.07,1.57-3.43,3.36-4.51,3.21-1.33-.2-2.44-2-3.64-3.13,1.09-1.22,2.18-3.4,3.28-3.42C155.1,126.17,156.48,128,158.6,129.52Z"/><path d="M484.83,306.78c-.4,3.07-1.51,4.87-3.58,4.54-1.16-.19-3-2.32-2.84-3.25a5.32,5.32,0,0,1,3.2-3.47C482.49,304.34,484,306.14,484.83,306.78Z"/><path d="M100.85,200.18c.66.87,2.08,1.91,2.25,3.13a3.07,3.07,0,0,1-3.4,3.54,3.88,3.88,0,0,1-2.8-2.52C96.67,202.36,97.86,200.77,100.85,200.18Z"/><path d="M124.53,299c-.09,2-1,3.68-3.12,3.32a4.64,4.64,0,0,1-2.94-2.82c-.56-1.8,1.45-3.74,3.29-3.62A2.66,2.66,0,0,1,124.53,299Z"/><path d="M179.66,103.09c2-1.43,3-2.69,4.17-2.89,1.87-.32,3.46,1,3,3-.32,1.32-1.74,3.14-2.83,3.27S181.7,104.75,179.66,103.09Z"/><path d="M408.05,488.63c-.47-.56-2.26-1.82-2.1-2.71.25-1.39,1.83-2.52,2.85-3.77,1,1.15,2.58,2.15,2.89,3.47S411.19,488.77,408.05,488.63Z"/><path d="M489.82,77.48c1.43,2.1,2.95,3.35,2.85,4.47a4.29,4.29,0,0,1-2.78,3A2.59,2.59,0,0,1,487,81.75C487.26,80.53,488.46,79.48,489.82,77.48Z"/><path d="M17.91,116.21c-2.64-.48-4.08-1.38-3.63-3.48.24-1.13,1.47-2.75,2.38-2.85A2.85,2.85,0,0,1,20,113.07C19.87,114.18,18.64,115.16,17.91,116.21Z"/><path d="M227.7,2.22C228.79,1.42,230-.14,231,0c1.15.18,2.94,1.84,2.89,2.79a4.29,4.29,0,0,1-2.8,3c-.92.19-2.2-1.4-3.33-2.2Z"/><path d="M21.76,412.41c-1.81,0-3.32-.85-2.83-2.75a4.8,4.8,0,0,1,3-2.91c1.64-.35,3,.9,2.95,2.88S23.7,412.46,21.76,412.41Z"/><path d="M154.4,317.56c-1.36-1.73-2.57-2.59-2.72-3.61a2.85,2.85,0,0,1,3.06-3.44c1,.07,2.5,1.89,2.51,2.94S155.78,315.69,154.4,317.56Z"/><path d="M90.48,245.94c-.66-1-1.76-2-1.89-3.13a2.29,2.29,0,0,1,3-2.64c1.09.26,2.65,1.71,2.64,2.61,0,1.08-1.47,2.15-2.3,3.22Z"/><path d="M133.27,52.61c.59,1,1.9,2.32,1.64,3-.48,1.19-1.89,2-2.91,3-.74-1-2.13-2-2.07-2.88.07-1.09,1.37-2.1,2.14-3.15Z"/><path d="M428.07,369.45c1.66-1.23,2.92-2.65,3.36-2.42a6,6,0,0,1,2.83,3c.19.54-1.72,2.63-2.34,2.49C430.73,372.29,429.78,370.93,428.07,369.45Z"/><path d="M125.58,490.28c-1.75,1.21-2.75,2.44-3.73,2.42s-1.75-1.39-2.62-2.16c.92-1,1.69-2.46,2.82-2.86C122.67,487.46,123.9,489,125.58,490.28Z"/><path d="M231.31,311.76c1.45-1.26,2.35-2.64,3.11-2.57s2.4,1.47,2.36,2.22c-.06,1.06-1.28,2.06-2,3.09Z"/><path d="M205.87,314.73c-1.67,1.24-2.65,2.51-3.45,2.41a3.38,3.38,0,0,1-2.33-2.29c-.05-.86,1.24-2.51,2-2.54C203.06,312.27,204.08,313.5,205.87,314.73Z"/><path d="M237.47,493.89c1.25,1.73,2.52,2.75,2.38,3.47a4.76,4.76,0,0,1-2.33,2.63c-.3.17-2.1-1.27-2.08-1.93C235.48,497,236.43,495.88,237.47,493.89Z"/><path d="M305.23,3.31l-3,2.49c-.75-1-1.77-1.91-2.1-3-.12-.41,1.42-1.9,2.13-1.85C303.11,1,303.88,2.16,305.23,3.31Z"/><path d="M284.11,282.2c1.14,1.56,2.22,2.42,2.31,3.36.05.59-1.58,2-2.16,1.83a4.4,4.4,0,0,1-2.46-2.29C281.63,284.71,282.94,283.62,284.11,282.2Z"/><path d="M340.16,277.5c-.11-2.81,1.52-4.41,4-4.33a2.92,2.92,0,0,1,3.15,3.13c.07,2.64-1.7,3.58-3.7,3.69C341.83,280.09,340.26,279.09,340.16,277.5Z"/><path d="M86.4,359.61c.89,1.18,2.71,2.64,2.47,3.49-.45,1.6-2.1,2.85-3.24,4.24-1.1-1.18-2.72-2.19-3.16-3.58C81.88,361.88,83.73,360.19,86.4,359.61Z"/><path d="M176.57,204.65c-1.85,1.47-2.95,3-4.23,3.19-1.89.27-3.28-1.16-3.39-3.28-.09-1.91,2.22-4.56,3.58-3.91S174.84,202.86,176.57,204.65Z"/><path d="M286.7,119.43c1.53,1.91,3.39,3.27,3.2,4.21-.3,1.5-1.76,3.56-3.09,3.88-2.17.53-3.31-1.73-3.11-3.62C283.84,122.59,285.29,121.43,286.7,119.43Z"/><path d="M303.76,327.48c-2,1.51-3,2.79-4.24,3.14-1.6.44-3.88-2.15-3.39-4,.32-1.18,2.09-3.08,2.52-2.9C300.25,324.4,301.56,325.78,303.76,327.48Z"/><path d="M403.19,318.72c-1.19.82-2.31,2.14-3.59,2.33a2.75,2.75,0,0,1-3.2-3.24c.22-1.25,2-3,3.05-3.07s2.51,1.64,3.77,2.56Z"/><path d="M164.13,238.64c-2,1.47-3.16,2.92-4.4,3a3,3,0,0,1-3.4-3.19c.09-2.4,2-3.24,3.84-3.07C161.28,235.52,162.26,237,164.13,238.64Z"/><path d="M270.62,342.71c3.42,0,4.71,1.49,4.56,3.51a3.9,3.9,0,0,1-2.72,2.65,3.25,3.25,0,0,1-3.77-3.53C268.75,344.24,270.21,343.23,270.62,342.71Z"/><path d="M210.12,373.29c-1.63-1.69-3.35-2.65-3.56-3.87-.35-2.09,1.41-3.11,3.38-3.12,1.81,0,3.61.84,3.36,2.8C213.14,370.38,211.56,371.48,210.12,373.29Z"/><path d="M416.38,276.51c1.58,1.72,3.1,2.62,3.29,3.75a2.89,2.89,0,0,1-3,3.51c-1.81-.08-3.59-1.19-3.2-3.38C413.64,279.22,415,278.27,416.38,276.51Z"/><path d="M258.49,137.28c-1.4-1.52-2.32-2.51-3.23-3.51,1.19-1.09,2.4-3.06,3.57-3s2.37,2,3.56,3.12Z"/><path d="M317.67,304.52l4.54-3.61c.88,1.25,2.38,2.47,2.43,3.75,0,.87-1.86,2.36-3.06,2.58C320.71,307.4,319.56,305.91,317.67,304.52Z"/><path d="M406,107.24c-1.31,2-2,4.39-3.2,4.63-1.79.37-2.94-1.49-3-3.56s.64-3.52,2.75-3.3C403.54,105.12,404.47,106.24,406,107.24Z"/><path d="M350.63,240.45c1.5,2,2.78,2.93,3.05,4.14.48,2.17-1.49,3.18-3,3a4.17,4.17,0,0,1-2.85-2.85C347.68,243.73,349.21,242.49,350.63,240.45Z"/><path d="M399.11,186.72l-3.73,4.05c-1-1.05-2.56-2-2.75-3.16-.4-2.44,1.68-3.18,3.61-3.18C397,184.43,397.73,185.57,399.11,186.72Z"/><path d="M151.14,382.62c-1.48-2-2.76-3.09-3-4.42-.12-.54,2-2.3,2.92-2.19,1.22.15,2.28,1.63,3.4,2.53Z"/><path d="M377.84,106.86c-1,.81-2.2,2.41-3,2.23a4.69,4.69,0,0,1-2.94-2.86c-.19-.71,1.51-2.69,2.46-2.76,1.1-.08,2.3,1.31,3.46,2.06Z"/><path d="M343.3,214.19c.39.67,1.69,1.94,1.47,2.81-.3,1.22-1.75,2.13-2.71,3.18-.86-1-2.23-2-2.46-3.11C339.23,215.28,340.45,214.16,343.3,214.19Z"/><path d="M214.75,165.79l-3.8,3.93c-1-1.07-2.59-2-2.82-3.22-.37-2,1.26-3,3.17-2.74C212.23,163.91,213.06,164.76,214.75,165.79Z"/><path d="M425.42,245.35c-1.77,1.51-3.18,3.14-3.54,2.93a8.75,8.75,0,0,1-3.07-3.34c-.18-.34,1.56-2.44,2.14-2.32C422.26,242.89,423.4,244,425.42,245.35Z"/><path d="M245.3,195.93l-4,3.23c-.81-1.07-2.31-2.21-2.22-3.21s1.64-2.28,2.77-2.59C242.56,193.18,243.66,194.63,245.3,195.93Z"/><path d="M246.45,360c-1.8,1.17-3,2.55-3.78,2.31a4.29,4.29,0,0,1-2.46-2.92c-.1-.83,1.76-2.79,2.2-2.64C243.67,357.21,244.66,358.48,246.45,360Z"/><path d="M368.4,174.75c-1,.74-2.24,2.26-3,2-1.16-.33-2-1.85-3-2.86.91-.83,1.78-2.26,2.74-2.33s2.12,1.15,3.18,1.81Z"/><path d="M122.63,374.15c-1.52,1.14-2.57,2.41-3.08,2.22-1.07-.4-1.85-1.59-2.74-2.45.83-.79,1.61-2.12,2.5-2.19S121.06,372.94,122.63,374.15Z"/></svg>